<svg width="400" height="400" viewBox="0 0 400 400" fill="#FF5533" xmlns="http://www.w3.org/2000/svg">
<rect width="400" height="400" fill="#FF5533"/>
<path d="M95.2637 225.481V254.181C95.2637 309.048 136.799 349.459 188.018 349.459C219.976 349.459 248.168 333.632 264.524 309.575V345.028H307.565V225.481H192.107V266.526H239.668C235.148 288.262 215.134 304.616 191.569 304.616C164.991 304.616 143.147 284.358 143.147 254.181V225.481H95.2637ZM119.152 210.815C133.463 210.815 144.869 199.947 144.869 185.597C144.869 171.248 133.463 160.38 119.152 160.38C104.84 160.38 93.4344 171.248 93.4344 185.597C93.4344 199.947 104.84 210.815 119.152 210.815ZM200.823 50.4352C141.318 50.4352 95.2637 89.1585 95.2637 145.713H143.147C143.147 116.381 168.004 95.2782 200.608 95.2782C233.211 95.2782 258.068 116.381 258.068 145.713H305.951C305.736 89.1585 260.005 50.4352 200.823 50.4352Z" fill="white"/>
</svg>
