<svg xmlns="http://www.w3.org/2000/svg" shape-rendering="geometricPrecision" text-rendering="geometricPrecision" image-rendering="optimizeQuality" fill-rule="evenodd" clip-rule="evenodd" viewBox="0 0 423 511.963"><path fill="#4D4D4D" fill-rule="nonzero" d="M211.5 0c58.397 0 111.276 23.681 149.547 61.953C399.318 100.224 423 153.103 423 211.5c0 58.397-23.682 111.276-61.953 149.548C322.776 399.319 269.897 423 211.5 423c-58.391 0-111.276-23.681-149.548-61.952C23.681 322.776 0 269.891 0 211.5c0-58.397 23.681-111.276 61.952-149.547C100.224 23.681 153.103 0 211.5 0z"/><path fill="#fff" fill-rule="nonzero" d="M211.501 16.19c53.93 0 102.761 21.866 138.104 57.207 35.341 35.343 57.207 84.173 57.207 138.104 0 53.931-21.866 102.761-57.209 138.102-35.341 35.344-84.172 57.209-138.102 57.209-53.931 0-102.762-21.865-138.105-57.206-35.34-35.344-57.206-84.174-57.206-138.105 0-53.931 21.866-102.761 57.206-138.104C108.739 38.056 157.57 16.19 211.501 16.19z"/><path fill="#fff" fill-rule="nonzero" d="M211.501 32.712c98.742 0 178.789 80.045 178.789 178.789 0 98.742-80.047 178.789-178.789 178.789-98.745 0-178.789-80.047-178.789-178.789 0-98.744 80.044-178.789 178.789-178.789z"/><path fill="red" fill-rule="nonzero" d="M236.225 34.421V388.58a180.345 180.345 0 01-24.724 1.71c-8.383 0-16.627-.592-24.702-1.707V34.419a180.647 180.647 0 0124.702-1.707c8.39 0 16.641.593 24.724 1.709zm151.033 144.185a179.787 179.787 0 013.032 32.895c0 5.576-.271 11.085-.769 16.531H33.48a181.348 181.348 0 01-.768-16.531c0-11.239 1.048-22.229 3.031-32.895h351.515zM97.793 252.178c2.864.371 5.788.566 8.69.566 2.898 0 5.822-.195 8.693-.568a128.51 128.51 0 00-2.356 18.946 128.66 128.66 0 0018.936-2.354l.005-.002a67.977 67.977 0 00-.566 8.692c0 2.9.195 5.825.571 8.69a129.067 129.067 0 00-18.946-2.356 128.74 128.74 0 002.354 18.942 68.387 68.387 0 00-8.691-.566c-2.902 0-5.826.197-8.692.573a129.416 129.416 0 002.358-18.949 128.93 128.93 0 00-18.941 2.354c.366-2.863.561-5.788.561-8.688 0-2.9-.195-5.826-.568-8.692a128.292 128.292 0 0018.946 2.356 129.834 129.834 0 00-2.351-18.939l-.003-.005zm0-148.277a67.54 67.54 0 008.69.568c2.898 0 5.822-.195 8.693-.571a128.326 128.326 0 00-2.356 18.951 129.472 129.472 0 0018.936-2.353h.005a67.856 67.856 0 00-.566 8.685c0 2.9.195 5.826.571 8.692a129.067 129.067 0 00-18.946-2.356 128.65 128.65 0 002.354 18.939 68.939 68.939 0 00-8.691-.561c-2.902 0-5.826.195-8.692.571a129.463 129.463 0 002.356-18.949 129.305 129.305 0 00-18.939 2.351c.366-2.861.561-5.787.561-8.687 0-2.898-.195-5.822-.568-8.69a129.097 129.097 0 0018.948 2.358 129.59 129.59 0 00-2.353-18.941l-.003-.007zm210.057 0c2.866.373 5.79.568 8.69.568 2.9 0 5.824-.195 8.693-.571a129.004 129.004 0 00-2.359 18.951 129.625 129.625 0 0018.941-2.353h.005a67.858 67.858 0 00-.568 8.685c0 2.9.197 5.826.571 8.692a128.887 128.887 0 00-18.949-2.356 129.463 129.463 0 002.354 18.939 68.807 68.807 0 00-8.688-.561c-2.9 0-5.824.195-8.695.571a128.79 128.79 0 002.359-18.949 129.197 129.197 0 00-18.936 2.351c.363-2.861.56-5.787.56-8.687 0-2.898-.197-5.822-.573-8.69a129.137 129.137 0 0018.951 2.358 128.91 128.91 0 00-2.353-18.941l-.003-.007zm0 148.277c2.866.371 5.79.566 8.69.566 2.9 0 5.824-.195 8.693-.568a128.51 128.51 0 00-2.356 18.946 128.384 128.384 0 0018.938-2.354l.005-.002a67.979 67.979 0 00-.568 8.692c0 2.9.197 5.825.571 8.69a128.887 128.887 0 00-18.949-2.356 129.52 129.52 0 002.354 18.942 68.256 68.256 0 00-8.688-.566c-2.9 0-5.824.197-8.695.573a128.774 128.774 0 002.359-18.949 129.066 129.066 0 00-18.936 2.354c.363-2.863.56-5.788.56-8.688 0-2.9-.197-5.826-.573-8.692a128.282 128.282 0 0018.949 2.356 129.016 129.016 0 00-2.351-18.939l-.003-.005z"/><path fill="#4D4D4D" fill-rule="nonzero" d="M59.929 325.027h303.138c14.712 0 24.949 11.892 26.911 26.912l20.462 133.113c0 14.711-12.2 26.911-26.912 26.911H39.468c-14.76 0-26.905-12.151-26.905-26.911l20.461-133.113c3.364-15.666 12.864-26.906 26.905-26.912z"/><path fill="#fff" d="M58.037 335.923h306.938c7.753 0 13.062 7.023 14.126 14.126l20.464 136.897c1.064 7.112-6.915 14.126-14.126 14.126H37.581c-7.21 0-15.275-6.437-14.126-14.126l20.456-136.897c1.149-7.689 6.389-14.126 14.126-14.126z"/><path fill="#333" fill-rule="nonzero" d="M128.258 400.337h-9.319v-38.353h11.41l6.212 20.492 6.212-20.492h11.412v38.353h-9.261v-24.373l-4.778 16.068h-7.168l-4.72-15.949v24.254zm50.239 0l-1.195-5.735h-9.2l-1.254 5.735h-10.275l9.856-38.353h12.724l9.858 38.353h-10.514zm-8.783-13.142h5.975l-2.926-13.8-3.049 13.8zm22.285-25.211h17.621c5.854 0 8.783 2.47 8.783 7.409v23.536c0 4.939-2.929 7.408-8.783 7.408h-17.621v-38.353zm15.948 30.167v-21.982c0-.876-.497-1.315-1.492-1.315h-4.003v24.612h4.003c.995 0 1.492-.437 1.492-1.315zm25.509.717h13.083v7.469h-23.536v-38.353h22.999v7.468h-12.546v7.826h10.812v7.466h-10.812v8.124zm28.317-30.884h10.453v38.353h-10.453v-38.353zm32.736 0h9.558v38.353h-8.96l-8.542-20.132v20.132h-9.558v-38.353h8.961l8.541 20.492v-20.492z"/><path fill="red" fill-rule="nonzero" d="M112.29 439.716H97.652v-6.944c0-1.226-.698-1.841-2.093-1.841h-3.012c-1.392 0-2.09.615-2.09 1.841v30.785c0 1.227.698 1.842 2.09 1.842h3.012c1.395 0 2.093-.615 2.093-1.842v-8.951h-4.183v-9.285h18.821v19.324c0 6.915-4.099 10.373-12.297 10.373h-11.88c-8.197 0-12.297-3.458-12.297-10.373v-32.96c0-6.915 4.1-10.373 12.297-10.373h11.88c8.198 0 12.297 3.458 12.297 10.373v8.031zm20.495 24.846h18.322v10.456h-32.961v-53.706h32.207v10.455h-17.568v10.961h15.141v10.456h-15.141v11.378zm34.968-43.25h12.38c8.2 0 12.297 3.458 12.297 10.373v32.96c0 6.915-4.097 10.373-12.297 10.373h-12.38c-8.198 0-12.297-3.458-12.297-10.373v-32.96c0-6.915 4.099-10.373 12.297-10.373zm10.039 41.409v-29.112c0-1.227-.698-1.842-2.093-1.842h-3.512c-1.395 0-2.093.615-2.093 1.842v29.112c0 1.226.698 1.841 2.093 1.841h3.512c1.395 0 2.093-.615 2.093-1.841zm35.719-6.776v19.073h-14.639v-53.706h24.846c8.197 0 12.297 3.458 12.297 10.373v13.887c0 5.298-2.4 8.561-7.195 9.788l9.871 19.658h-15.727l-8.532-19.073h-.921zm5.772-24.178h-5.772v14.222h5.772c1.396 0 2.091-.612 2.091-1.839v-10.541c0-1.227-.695-1.842-2.091-1.842zm58.643 7.949h-14.638v-6.944c0-1.226-.698-1.841-2.093-1.841h-3.012c-1.393 0-2.09.615-2.09 1.841v30.785c0 1.227.697 1.842 2.09 1.842h3.012c1.395 0 2.093-.615 2.093-1.842v-8.951h-4.183v-9.285h18.821v19.324c0 6.915-4.1 10.373-12.297 10.373h-11.88c-8.198 0-12.298-3.458-12.298-10.373v-32.96c0-6.915 4.1-10.373 12.298-10.373h11.88c8.197 0 12.297 3.458 12.297 10.373v8.031zm5.856-18.404h14.639v53.706h-14.639v-53.706zm48.687 53.706l-1.673-8.032h-12.883l-1.758 8.032h-14.388l13.802-53.706h17.82l13.802 53.706h-14.722zm-12.297-18.405h8.366l-4.101-19.324-4.265 19.324z"/></svg>