<?xml version="1.0" encoding="utf-8"?>
<svg xmlns="http://www.w3.org/2000/svg" width="240" height="241.19" version="1.1" style="shape-rendering:geometricPrecision; text-rendering:geometricPrecision; image-rendering:optimizeQuality; fill-rule:evenodd; clip-rule:evenodd" viewBox="222 4740 16248 16248">
  <defs>
    <style type="text/css">
   
    .fil0 {fill:#E49C24}
   
  </style>
  </defs>
  <g id="Layer_x0020_1" transform="matrix(1, 0, 0, 1, -1.700195, -184.248538)">
    <g id="_2216414565856">
      <g id="Icons">
        <g id="Color-">
          <path id="Whatsapp" class="fil0" d="M8345.4 5108.83c-4376.87,0 -7937.12,3561.25 -7937.12,7939.35 0,1736.31 559.94,3346.55 1511.8,4653.54l-989.25 2949.79 3051.66 -975.32c1255.14,830.81 2752.99,1311.48 4367.51,1311.48 4376.87,0 7937.12,-3561.38 7937.12,-7939.35 0,-4378.11 -3560.25,-7939.36 -7937.12,-7939.36l-4.6 0 0 -0.13zm-2216.49 4032.84c-153.94,-368.71 -270.62,-382.67 -503.84,-392.16 -79.41,-4.6 -167.91,-9.22 -266.02,-9.22 -303.42,0 -620.65,88.66 -812,284.67 -233.23,238.03 -811.87,793.39 -811.87,1932.31 0,1138.92 830.57,2240.42 942.5,2394.55 116.68,153.85 1619.27,2524.95 3952.3,3491.31 1824.44,756.11 2365.82,686.03 2781.04,597.38 606.57,-130.67 1367.21,-578.94 1558.56,-1120.21 191.35,-541.53 191.35,-1003.64 135.24,-1101.64 -55.96,-98 -210.04,-153.85 -443.27,-270.7 -233.22,-116.71 -1367.21,-676.82 -1581.87,-751.5 -210.04,-79.31 -410.6,-51.25 -569.16,172.82 -224.01,312.72 -443.27,630.18 -620.66,821.45 -139.99,149.38 -368.73,168.09 -559.95,88.66 -256.66,-107.23 -975.17,-359.49 -1861.84,-1148.28 -685.97,-611.34 -1152.55,-1372.07 -1287.79,-1600.75 -135.38,-233.29 -13.97,-368.83 93.23,-494.77 116.67,-144.77 228.62,-247.38 345.29,-382.8 116.68,-135.28 182,-205.36 256.67,-364.09 79.41,-153.99 23.31,-312.72 -32.66,-429.44 -55.97,-116.71 -522.55,-1255.62 -713.9,-1717.59z"/>
        </g>
      </g>
    </g>
  </g>
</svg>